<svg id="visual" viewBox="0 0 900 600" width="900" height="600" xmlns="http://www.w3.org/2000/svg" xmlns:xlink="http://www.w3.org/1999/xlink" version="1.1"><rect x="0" y="0" width="900" height="600" fill="#4ca4a9"></rect><path d="M0 376L21.5 379.8C43 383.7 86 391.3 128.8 403.7C171.7 416 214.3 433 257.2 439.7C300 446.3 343 442.7 385.8 431.7C428.7 420.7 471.3 402.3 514.2 397.7C557 393 600 402 642.8 412.3C685.7 422.7 728.3 434.3 771.2 428.8C814 423.3 857 400.7 878.5 389.3L900 378L900 601L878.5 601C857 601 814 601 771.2 601C728.3 601 685.7 601 642.8 601C600 601 557 601 514.2 601C471.3 601 428.7 601 385.8 601C343 601 300 601 257.2 601C214.3 601 171.7 601 128.8 601C86 601 43 601 21.5 601L0 601Z" fill="#80d0c7" stroke-linecap="round" stroke-linejoin="miter"></path></svg>